# MagicaVoxel @ Ephtracy

# group
o 

# material
mtllib chr_knight.mtl
usemtl palette

# normals
vn -1 0 0
vn 1 0 0
vn 0 0 1
vn 0 0 -1
vn 0 -1 0
vn 0 1 0

# texcoords
vt 0.0332031 0.5
vt 0.0683594 0.5
vt 0.369141 0.5
vt 0.537109 0.5
vt 0.603516 0.5
vt 0.767578 0.5
vt 0.865234 0.5
vt 0.896484 0.5
vt 0.986328 0.5
vt 0.994141 0.5

# verts
v -0.3 0.3 -0.3
v -0.3 0.3 -0.5
v -0.3 0.4 0.1
v -0.3 0.4 -1.49012e-08
v -0.3 0.4 -0.1
v -0.3 0.4 -0.3
v -0.3 0.4 -0.4
v -0.3 0.4 -0.5
v -0.3 0.5 0.1
v -0.3 0.5 -1.49012e-08
v -0.3 0.5 -0.1
v -0.3 0.5 -0.3
v -0.3 0.5 -0.4
v -0.3 0.5 -0.5
v -0.3 0.6 -0.3
v -0.3 0.6 -0.5
v -0.3 0.8 -1.49012e-08
v -0.3 0.8 -0.1
v -0.2 0 -1.49012e-08
v -0.2 0 -0.1
v -0.2 0.1 -1.49012e-08
v -0.2 0.1 -0.1
v -0.2 0.2 -1.49012e-08
v -0.2 0.2 -0.1
v -0.2 0.3 0.1
v -0.2 0.3 -1.49012e-08
v -0.2 0.3 -0.1
v -0.2 0.3 -0.2
v -0.2 0.4 0.1
v -0.2 0.4 -1.49012e-08
v -0.2 0.4 -0.1
v -0.2 0.4 -0.2
v -0.2 0.5 0.1
v -0.2 0.5 -1.49012e-08
v -0.2 0.5 -0.1
v -0.2 0.5 -0.2
v -0.2 0.8 0.1
v -0.2 0.8 -1.49012e-08
v -0.2 0.8 -0.1
v -0.2 0.8 -0.2
v -0.2 1 -0.1
v -0.2 1 -0.2
v -0.2 1.1 0.1
v -0.2 1.1 -0.1
v -0.2 1.1 -0.2
v -0.2 1.2 0.1
v -0.2 1.2 -0.2
v 0.1 0 -1.49012e-08
v 0.1 0 -0.1
v 0.1 0.1 -1.49012e-08
v 0.1 0.1 -0.1
v 0.1 0.2 -1.49012e-08
v 0.1 0.2 -0.1
v 0.1 0.3 -1.49012e-08
v 0.1 0.3 -0.1
v -0.2 0.3 -0.3
v -0.2 0.3 -0.5
v -0.2 0.4 -0.2
v -0.2 0.4 -0.3
v -0.2 0.4 -0.4
v -0.2 0.4 -0.5
v -0.2 0.5 -0.2
v -0.2 0.5 -0.3
v -0.2 0.5 -0.4
v -0.2 0.5 -0.5
v -0.2 0.6 -0.3
v -0.2 0.6 -0.5
v -0.1 0 -1.49012e-08
v -0.1 0 -0.1
v -0.1 0.1 -1.49012e-08
v -0.1 0.1 -0.1
v -0.1 0.2 -1.49012e-08
v -0.1 0.2 -0.1
v -0.1 0.3 -1.49012e-08
v -0.1 0.3 -0.1
v 0.2 0 -1.49012e-08
v 0.2 0 -0.1
v 0.2 0.1 -1.49012e-08
v 0.2 0.1 -0.1
v 0.2 0.2 -1.49012e-08
v 0.2 0.2 -0.1
v 0.2 0.3 0.1
v 0.2 0.3 -1.49012e-08
v 0.2 0.3 -0.1
v 0.2 0.3 -0.2
v 0.2 0.4 0.1
v 0.2 0.4 -1.49012e-08
v 0.2 0.4 -0.1
v 0.2 0.4 -0.2
v 0.2 0.5 -1.49012e-08
v 0.2 0.5 -0.1
v 0.2 0.8 0.1
v 0.2 0.8 -1.49012e-08
v 0.2 0.8 -0.1
v 0.2 0.8 -0.2
v 0.2 1 -0.1
v 0.2 1 -0.2
v 0.2 1.1 0.1
v 0.2 1.1 -0.1
v 0.2 1.1 -0.2
v 0.2 1.2 0.1
v 0.2 1.2 -0.2
v 0.3 0.4 -1.49012e-08
v 0.3 0.4 -0.1
v 0.3 0.5 -1.49012e-08
v 0.3 0.5 -0.1
v 0.3 0.8 -1.49012e-08
v 0.3 0.8 -0.1
v -0.3 0.4 0.1
v -0.3 0.5 0.1
v -0.2 0.3 0.1
v -0.2 0.4 0.1
v -0.2 0.5 0.1
v -0.2 0.8 0.1
v -0.2 1.1 0.1
v -0.2 1.2 0.1
v -0.1 0.4 0.1
v -0.1 0.5 0.1
v 2.98023e-08 0.4 0.1
v 2.98023e-08 0.6 0.1
v 0.1 0.4 0.1
v 0.1 0.6 0.1
v 0.2 0.3 0.1
v 0.2 0.4 0.1
v 0.2 0.8 0.1
v 0.2 1.1 0.1
v 0.2 1.2 0.1
v -0.3 0.5 -1.49012e-08
v -0.3 0.8 -1.49012e-08
v -0.2 0 -1.49012e-08
v -0.2 0.1 -1.49012e-08
v -0.2 0.2 -1.49012e-08
v -0.2 0.3 -1.49012e-08
v -0.2 0.5 -1.49012e-08
v -0.2 0.8 -1.49012e-08
v -0.1 0 -1.49012e-08
v -0.1 0.1 -1.49012e-08
v -0.1 0.2 -1.49012e-08
v -0.1 0.3 -1.49012e-08
v 0.1 0 -1.49012e-08
v 0.1 0.1 -1.49012e-08
v 0.1 0.2 -1.49012e-08
v 0.1 0.3 -1.49012e-08
v 0.2 0 -1.49012e-08
v 0.2 0.1 -1.49012e-08
v 0.2 0.2 -1.49012e-08
v 0.2 0.3 -1.49012e-08
v 0.2 0.4 -1.49012e-08
v 0.2 0.5 -1.49012e-08
v 0.2 0.8 -1.49012e-08
v 0.3 0.4 -1.49012e-08
v 0.3 0.5 -1.49012e-08
v 0.3 0.8 -1.49012e-08
v -0.3 0.3 -0.3
v -0.3 0.4 -0.3
v -0.3 0.5 -0.3
v -0.3 0.6 -0.3
v -0.2 0.3 -0.3
v -0.2 0.4 -0.3
v -0.2 0.5 -0.3
v -0.2 0.6 -0.3
v -0.3 0.5 -0.1
v -0.3 0.8 -0.1
v -0.2 0 -0.1
v -0.2 0.1 -0.1
v -0.2 0.2 -0.1
v -0.2 0.3 -0.1
v -0.2 0.5 -0.1
v -0.2 0.8 -0.1
v -0.1 0 -0.1
v -0.1 0.1 -0.1
v -0.1 0.2 -0.1
v -0.1 0.3 -0.1
v 0.1 0 -0.1
v 0.1 0.1 -0.1
v 0.1 0.2 -0.1
v 0.1 0.3 -0.1
v 0.2 0 -0.1
v 0.2 0.1 -0.1
v 0.2 0.2 -0.1
v 0.2 0.3 -0.1
v 0.2 0.4 -0.1
v 0.2 0.5 -0.1
v 0.2 0.8 -0.1
v 0.3 0.4 -0.1
v 0.3 0.5 -0.1
v 0.3 0.8 -0.1
v -0.2 0.3 -0.2
v -0.2 0.4 -0.2
v -0.2 0.5 -0.2
v -0.2 0.8 -0.2
v -0.2 1 -0.2
v -0.2 1.1 -0.2
v -0.2 1.2 -0.2
v -0.1 0.4 -0.2
v -0.1 0.5 -0.2
v -0.1 0.8 -0.2
v -0.1 0.9 -0.2
v -0.1 1 -0.2
v -0.1 1.1 -0.2
v 2.98023e-08 0.4 -0.2
v 2.98023e-08 0.6 -0.2
v 0.1 0.4 -0.2
v 0.1 0.6 -0.2
v 0.1 0.8 -0.2
v 0.1 0.9 -0.2
v 0.1 1 -0.2
v 0.1 1.1 -0.2
v 0.2 0.3 -0.2
v 0.2 0.4 -0.2
v 0.2 0.8 -0.2
v 0.2 1 -0.2
v 0.2 1.1 -0.2
v 0.2 1.2 -0.2
v -0.3 0.4 -0.4
v -0.3 0.5 -0.4
v -0.2 0.4 -0.4
v -0.2 0.5 -0.4
v -0.3 0.3 -0.5
v -0.3 0.4 -0.5
v -0.3 0.5 -0.5
v -0.3 0.6 -0.5
v -0.2 0.3 -0.5
v -0.2 0.4 -0.5
v -0.2 0.5 -0.5
v -0.2 0.6 -0.5
v -0.2 0 -1.49012e-08
v -0.1 0 -1.49012e-08
v 0.1 0 -1.49012e-08
v 0.2 0 -1.49012e-08
v -0.2 0 -0.1
v -0.1 0 -0.1
v 0.1 0 -0.1
v 0.2 0 -0.1
v -0.2 0.3 0.1
v 0.2 0.3 0.1
v -0.2 0.3 -1.49012e-08
v -0.1 0.3 -1.49012e-08
v 0.1 0.3 -1.49012e-08
v 0.2 0.3 -1.49012e-08
v -0.2 0.3 -0.1
v -0.1 0.3 -0.1
v 0.1 0.3 -0.1
v 0.2 0.3 -0.1
v -0.2 0.3 -0.2
v 0.2 0.3 -0.2
v -0.3 0.3 -0.3
v -0.2 0.3 -0.3
v -0.3 0.3 -0.5
v -0.2 0.3 -0.5
v -0.3 0.4 0.1
v -0.2 0.4 0.1
v -0.3 0.4 -1.49012e-08
v -0.2 0.4 -1.49012e-08
v 0.2 0.4 -1.49012e-08
v 0.3 0.4 -1.49012e-08
v -0.3 0.4 -0.1
v -0.2 0.4 -0.1
v 0.2 0.4 -0.1
v 0.3 0.4 -0.1
v -0.2 0.4 -0.2
v -0.3 0.4 -0.3
v -0.2 0.4 -0.3
v -0.3 0.5 -0.4
v -0.2 0.5 -0.4
v -0.3 0.5 -0.5
v -0.2 0.5 -0.5
v -0.3 0.4 -0.4
v -0.2 0.4 -0.4
v -0.3 0.4 -0.5
v -0.2 0.4 -0.5
v -0.3 0.5 0.1
v -0.2 0.5 0.1
v -0.3 0.5 -1.49012e-08
v -0.2 0.5 -1.49012e-08
v -0.3 0.5 -0.1
v -0.2 0.5 -0.1
v -0.2 0.5 -0.2
v -0.3 0.5 -0.3
v -0.2 0.5 -0.3
v -0.3 0.6 -0.3
v -0.2 0.6 -0.3
v -0.3 0.6 -0.5
v -0.2 0.6 -0.5
v -0.3 0.8 -1.49012e-08
v -0.2 0.8 -1.49012e-08
v 0.2 0.8 -1.49012e-08
v 0.3 0.8 -1.49012e-08
v -0.3 0.8 -0.1
v -0.2 0.8 -0.1
v 0.2 0.8 -0.1
v 0.3 0.8 -0.1
v -0.2 1.2 0.1
v 0.2 1.2 0.1
v -0.2 1.2 -0.2
v 0.2 1.2 -0.2

# faces
f 6/9/1 2/9/1 1/9/1
f 7/9/1 2/9/1 6/9/1
f 8/9/1 2/9/1 7/9/1
f 9/9/1 4/9/1 3/9/1
f 10/1/1 5/1/1 4/1/1
f 10/9/1 4/9/1 9/9/1
f 11/9/1 6/9/1 5/9/1
f 11/1/1 5/1/1 10/1/1
f 11/9/1 7/9/1 6/9/1
f 12/9/1 7/9/1 11/9/1
f 13/9/1 7/9/1 12/9/1
f 15/9/1 14/9/1 13/9/1
f 15/9/1 13/9/1 12/9/1
f 16/9/1 14/9/1 15/9/1
f 17/5/1 11/5/1 10/5/1
f 18/5/1 11/5/1 17/5/1
f 21/3/1 20/3/1 19/3/1
f 22/3/1 20/3/1 21/3/1
f 23/1/1 22/1/1 21/1/1
f 24/1/1 22/1/1 23/1/1
f 26/10/1 24/10/1 23/10/1
f 27/10/1 24/10/1 26/10/1
f 29/10/1 27/10/1 26/10/1
f 29/10/1 28/10/1 27/10/1
f 29/10/1 26/10/1 25/10/1
f 30/10/1 28/10/1 29/10/1
f 31/10/1 28/10/1 30/10/1
f 32/10/1 28/10/1 31/10/1
f 37/5/1 34/5/1 33/5/1
f 38/5/1 34/5/1 37/5/1
f 39/5/1 36/5/1 35/5/1
f 40/5/1 36/5/1 39/5/1
f 41/1/1 38/1/1 37/1/1
f 41/1/1 39/1/1 38/1/1
f 41/1/1 40/1/1 39/1/1
f 42/1/1 40/1/1 41/1/1
f 43/1/1 41/1/1 37/1/1
f 44/10/1 42/10/1 41/10/1
f 44/1/1 41/1/1 43/1/1
f 45/10/1 42/10/1 44/10/1
f 46/4/1 44/4/1 43/4/1
f 46/4/1 45/4/1 44/4/1
f 47/4/1 45/4/1 46/4/1
f 50/3/1 49/3/1 48/3/1
f 51/3/1 49/3/1 50/3/1
f 52/1/1 51/1/1 50/1/1
f 53/1/1 51/1/1 52/1/1
f 54/10/1 53/10/1 52/10/1
f 55/10/1 53/10/1 54/10/1
f 56/9/2 57/9/2 59/9/2
f 59/9/2 57/9/2 60/9/2
f 60/9/2 57/9/2 61/9/2
f 58/9/2 59/9/2 62/9/2
f 59/9/2 60/9/2 62/9/2
f 62/9/2 60/9/2 63/9/2
f 63/9/2 60/9/2 64/9/2
f 64/9/2 65/9/2 66/9/2
f 63/9/2 64/9/2 66/9/2
f 66/9/2 65/9/2 67/9/2
f 68/3/2 69/3/2 70/3/2
f 70/3/2 69/3/2 71/3/2
f 70/1/2 71/1/2 72/1/2
f 72/1/2 71/1/2 73/1/2
f 72/10/2 73/10/2 74/10/2
f 74/10/2 73/10/2 75/10/2
f 76/3/2 77/3/2 78/3/2
f 78/3/2 77/3/2 79/3/2
f 78/1/2 79/1/2 80/1/2
f 80/1/2 79/1/2 81/1/2
f 80/10/2 81/10/2 83/10/2
f 83/10/2 81/10/2 84/10/2
f 83/10/2 84/10/2 86/10/2
f 84/10/2 85/10/2 86/10/2
f 82/10/2 83/10/2 86/10/2
f 86/10/2 85/10/2 87/10/2
f 87/10/2 85/10/2 88/10/2
f 88/10/2 85/10/2 89/10/2
f 86/5/2 87/5/2 90/5/2
f 88/5/2 89/5/2 91/5/2
f 86/5/2 90/5/2 92/5/2
f 92/5/2 90/5/2 93/5/2
f 91/5/2 89/5/2 94/5/2
f 94/5/2 89/5/2 95/5/2
f 92/1/2 93/1/2 96/1/2
f 93/1/2 94/1/2 96/1/2
f 94/1/2 95/1/2 96/1/2
f 96/1/2 95/1/2 97/1/2
f 92/1/2 96/1/2 98/1/2
f 96/10/2 97/10/2 99/10/2
f 98/1/2 96/1/2 99/1/2
f 99/10/2 97/10/2 100/10/2
f 98/4/2 99/4/2 101/4/2
f 99/4/2 100/4/2 101/4/2
f 101/4/2 100/4/2 102/4/2
f 103/1/2 104/1/2 105/1/2
f 105/1/2 104/1/2 106/1/2
f 105/5/2 106/5/2 107/5/2
f 107/5/2 106/5/2 108/5/2
f 112/9/3 110/9/3 109/9/3
f 113/9/3 110/9/3 112/9/3
f 117/10/3 112/10/3 111/10/3
f 117/6/3 113/6/3 112/6/3
f 118/5/3 114/5/3 113/5/3
f 118/6/3 113/6/3 117/6/3
f 119/10/3 117/10/3 111/10/3
f 119/5/3 118/5/3 117/5/3
f 120/5/3 114/5/3 118/5/3
f 120/5/3 118/5/3 119/5/3
f 121/10/3 119/10/3 111/10/3
f 121/6/3 120/6/3 119/6/3
f 122/5/3 114/5/3 120/5/3
f 122/6/3 120/6/3 121/6/3
f 123/10/3 121/10/3 111/10/3
f 124/5/3 122/5/3 121/5/3
f 124/10/3 121/10/3 123/10/3
f 125/1/3 115/1/3 114/1/3
f 125/5/3 122/5/3 124/5/3
f 125/5/3 114/5/3 122/5/3
f 126/4/3 116/4/3 115/4/3
f 126/1/3 115/1/3 125/1/3
f 127/4/3 116/4/3 126/4/3
f 134/5/3 129/5/3 128/5/3
f 135/5/3 129/5/3 134/5/3
f 136/3/3 131/3/3 130/3/3
f 137/1/3 132/1/3 131/1/3
f 137/3/3 131/3/3 136/3/3
f 138/10/3 133/10/3 132/10/3
f 138/1/3 132/1/3 137/1/3
f 139/10/3 133/10/3 138/10/3
f 144/3/3 141/3/3 140/3/3
f 145/1/3 142/1/3 141/1/3
f 145/3/3 141/3/3 144/3/3
f 146/10/3 143/10/3 142/10/3
f 146/1/3 142/1/3 145/1/3
f 147/10/3 143/10/3 146/10/3
f 151/1/3 149/1/3 148/1/3
f 152/5/3 150/5/3 149/5/3
f 152/1/3 149/1/3 151/1/3
f 153/5/3 150/5/3 152/5/3
f 158/9/3 155/9/3 154/9/3
f 159/9/3 155/9/3 158/9/3
f 160/9/3 157/9/3 156/9/3
f 161/9/3 157/9/3 160/9/3
f 162/5/4 163/5/4 168/5/4
f 168/5/4 163/5/4 169/5/4
f 164/3/4 165/3/4 170/3/4
f 165/1/4 166/1/4 171/1/4
f 170/3/4 165/3/4 171/3/4
f 166/10/4 167/10/4 172/10/4
f 171/1/4 166/1/4 172/1/4
f 172/10/4 167/10/4 173/10/4
f 174/3/4 175/3/4 178/3/4
f 175/1/4 176/1/4 179/1/4
f 178/3/4 175/3/4 179/3/4
f 176/10/4 177/10/4 180/10/4
f 179/1/4 176/1/4 180/1/4
f 180/10/4 177/10/4 181/10/4
f 182/1/4 183/1/4 185/1/4
f 183/5/4 184/5/4 186/5/4
f 185/1/4 183/1/4 186/1/4
f 186/5/4 184/5/4 187/5/4
f 188/10/4 189/10/4 195/10/4
f 189/6/4 190/6/4 195/6/4
f 190/5/4 191/5/4 196/5/4
f 195/6/4 190/6/4 196/6/4
f 191/1/4 192/1/4 197/1/4
f 196/5/4 191/5/4 197/5/4
f 197/1/4 192/1/4 198/1/4
f 192/10/4 193/10/4 199/10/4
f 198/1/4 192/1/4 199/1/4
f 193/4/4 194/4/4 200/4/4
f 199/10/4 193/10/4 200/10/4
f 188/10/4 195/10/4 201/10/4
f 195/5/4 196/5/4 201/5/4
f 196/5/4 197/5/4 201/5/4
f 201/5/4 197/5/4 202/5/4
f 188/10/4 201/10/4 203/10/4
f 201/6/4 202/6/4 203/6/4
f 202/5/4 197/5/4 204/5/4
f 203/6/4 202/6/4 204/6/4
f 197/7/4 198/7/4 205/7/4
f 204/5/4 197/5/4 205/5/4
f 198/1/4 199/1/4 206/1/4
f 205/7/4 198/7/4 206/7/4
f 199/1/4 200/1/4 206/1/4
f 206/1/4 200/1/4 207/1/4
f 200/4/4 194/4/4 208/4/4
f 207/1/4 200/1/4 208/1/4
f 188/10/4 203/10/4 209/10/4
f 204/5/4 205/5/4 210/5/4
f 209/10/4 203/10/4 210/10/4
f 203/5/4 204/5/4 210/5/4
f 206/1/4 207/1/4 211/1/4
f 210/5/4 205/5/4 211/5/4
f 205/1/4 206/1/4 211/1/4
f 207/10/4 208/10/4 212/10/4
f 211/1/4 207/1/4 212/1/4
f 208/4/4 194/4/4 213/4/4
f 212/10/4 208/10/4 213/10/4
f 213/4/4 194/4/4 214/4/4
f 215/9/4 216/9/4 217/9/4
f 217/9/4 216/9/4 218/9/4
f 219/9/4 220/9/4 223/9/4
f 223/9/4 220/9/4 224/9/4
f 221/9/4 222/9/4 225/9/4
f 225/9/4 222/9/4 226/9/4
f 231/3/5 228/3/5 227/3/5
f 232/3/5 228/3/5 231/3/5
f 233/3/5 230/3/5 229/3/5
f 234/3/5 230/3/5 233/3/5
f 237/10/5 236/10/5 235/10/5
f 238/10/5 236/10/5 237/10/5
f 239/10/5 236/10/5 238/10/5
f 240/10/5 236/10/5 239/10/5
f 242/10/5 239/10/5 238/10/5
f 243/10/5 239/10/5 242/10/5
f 245/10/5 242/10/5 241/10/5
f 245/10/5 244/10/5 243/10/5
f 245/10/5 243/10/5 242/10/5
f 246/10/5 244/10/5 245/10/5
f 249/9/5 248/9/5 247/9/5
f 250/9/5 248/9/5 249/9/5
f 253/9/5 252/9/5 251/9/5
f 254/9/5 252/9/5 253/9/5
f 257/1/5 254/1/5 253/1/5
f 258/1/5 254/1/5 257/1/5
f 259/1/5 256/1/5 255/1/5
f 260/1/5 256/1/5 259/1/5
f 261/9/5 258/9/5 257/9/5
f 262/9/5 261/9/5 257/9/5
f 263/9/5 261/9/5 262/9/5
f 266/9/5 265/9/5 264/9/5
f 267/9/5 265/9/5 266/9/5
f 268/9/6 269/9/6 270/9/6
f 270/9/6 269/9/6 271/9/6
f 272/9/6 273/9/6 274/9/6
f 274/9/6 273/9/6 275/9/6
f 276/9/6 277/9/6 278/9/6
f 276/9/6 278/9/6 279/9/6
f 279/9/6 278/9/6 280/9/6
f 281/9/6 282/9/6 283/9/6
f 283/9/6 282/9/6 284/9/6
f 285/5/6 286/5/6 289/5/6
f 289/5/6 286/5/6 290/5/6
f 287/5/6 288/5/6 291/5/6
f 291/5/6 288/5/6 292/5/6
f 293/4/6 294/4/6 295/4/6
f 295/4/6 294/4/6 296/4/6
